<svg width="269" height="269" xmlns="http://www.w3.org/2000/svg" xmlns:xlink="http://www.w3.org/1999/xlink" overflow="hidden"><defs><clipPath id="clip0"><rect x="1365" y="1634" width="269" height="269"/></clipPath></defs><g clip-path="url(#clip0)" transform="translate(-1365 -1634)"><path d="M1458.5 1675.5C1458.5 1654.51 1475.51 1637.5 1496.5 1637.5 1517.49 1637.5 1534.5 1654.51 1534.5 1675.5 1534.5 1696.49 1517.49 1713.5 1496.5 1713.5 1475.51 1713.5 1458.5 1696.49 1458.5 1675.5Z" stroke="#000000" stroke-width="4.58333" stroke-miterlimit="8" fill-rule="evenodd"/><path d="M1545.5 1730C1545.5 1709.29 1562.51 1692.5 1583.5 1692.5 1604.49 1692.5 1621.5 1709.29 1621.5 1730 1621.5 1750.71 1604.49 1767.5 1583.5 1767.5 1562.51 1767.5 1545.5 1750.71 1545.5 1730Z" stroke="#000000" stroke-width="4.58333" stroke-miterlimit="8" fill-rule="evenodd"/><path d="M1378.5 1734C1378.5 1713.29 1395.51 1696.5 1416.5 1696.5 1437.49 1696.5 1454.5 1713.29 1454.5 1734 1454.5 1754.71 1437.49 1771.5 1416.5 1771.5 1395.51 1771.5 1378.5 1754.71 1378.5 1734Z" stroke="#000000" stroke-width="4.58333" stroke-miterlimit="8" fill-rule="evenodd"/><path d="M1378.5 1816C1378.5 1795.29 1395.51 1778.5 1416.5 1778.5 1437.49 1778.5 1454.5 1795.29 1454.5 1816 1454.5 1836.71 1437.49 1853.5 1416.5 1853.5 1395.51 1853.5 1378.5 1836.71 1378.5 1816Z" stroke="#000000" stroke-width="4.58333" stroke-miterlimit="8" fill-rule="evenodd"/><path d="M1545.5 1816C1545.5 1795.29 1562.51 1778.5 1583.5 1778.5 1604.49 1778.5 1621.5 1795.29 1621.5 1816 1621.5 1836.71 1604.49 1853.5 1583.5 1853.5 1562.51 1853.5 1545.5 1836.71 1545.5 1816Z" stroke="#000000" stroke-width="4.58333" stroke-miterlimit="8" fill-rule="evenodd"/><path d="M1462.5 1863C1462.5 1842.29 1479.29 1825.5 1500 1825.5 1520.71 1825.5 1537.5 1842.29 1537.5 1863 1537.5 1883.71 1520.71 1900.5 1500 1900.5 1479.29 1900.5 1462.5 1883.71 1462.5 1863Z" stroke="#000000" stroke-width="4.58333" stroke-miterlimit="8" fill-rule="evenodd"/></g></svg>