<svg width="269" height="269" xmlns="http://www.w3.org/2000/svg" xmlns:xlink="http://www.w3.org/1999/xlink" overflow="hidden"><defs><clipPath id="clip0"><rect x="282" y="562" width="269" height="269"/></clipPath></defs><g clip-path="url(#clip0)" transform="translate(-282 -562)"><path d="M0 0 127.097 127.256" stroke="#000000" stroke-width="11.4583" stroke-miterlimit="8" fill="none" fill-rule="evenodd" transform="matrix(1 0 0 -1 353.5 761.756)"/><path d="M479.141 761.355 353.5 633.5" stroke="#000000" stroke-width="11.4583" stroke-miterlimit="8" fill="none" fill-rule="evenodd"/><path d="M289.5 607C289.5 586.289 306.289 569.5 327 569.5 347.711 569.5 364.5 586.289 364.5 607 364.5 627.711 347.711 644.5 327 644.5 306.289 644.5 289.5 627.711 289.5 607Z" stroke="#000000" stroke-width="4.58333" stroke-miterlimit="8" fill-rule="evenodd"/><path d="M379.5 696.5C379.5 675.513 396.289 658.5 417 658.5 437.711 658.5 454.5 675.513 454.5 696.5 454.5 717.487 437.711 734.5 417 734.5 396.289 734.5 379.5 717.487 379.5 696.5Z" stroke="#000000" stroke-width="4.58333" stroke-miterlimit="8" fill-rule="evenodd"/><path d="M289.5 788C289.5 767.289 306.289 750.5 327 750.5 347.711 750.5 364.5 767.289 364.5 788 364.5 808.711 347.711 825.5 327 825.5 306.289 825.5 289.5 808.711 289.5 788Z" stroke="#000000" stroke-width="4.58333" stroke-miterlimit="8" fill-rule="evenodd"/><path d="M469.5 607.5C469.5 586.513 486.513 569.5 507.5 569.5 528.487 569.5 545.5 586.513 545.5 607.5 545.5 628.487 528.487 645.5 507.5 645.5 486.513 645.5 469.5 628.487 469.5 607.5Z" stroke="#000000" stroke-width="4.58333" stroke-miterlimit="8" fill-rule="evenodd"/><path d="M468.5 788C468.5 767.289 485.289 750.5 506 750.5 526.711 750.5 543.5 767.289 543.5 788 543.5 808.711 526.711 825.5 506 825.5 485.289 825.5 468.5 808.711 468.5 788Z" stroke="#000000" stroke-width="4.58333" stroke-miterlimit="8" fill-rule="evenodd"/></g></svg>