<svg width="228" height="231" xmlns="http://www.w3.org/2000/svg" xmlns:xlink="http://www.w3.org/1999/xlink" overflow="hidden"><defs><clipPath id="clip0"><rect x="309" y="579" width="228" height="231"/></clipPath></defs><g clip-path="url(#clip0)" transform="translate(-309 -579)"><path d="M0 0 91.2365 96.7365" stroke="#000000" stroke-width="11.4583" stroke-miterlimit="8" fill="none" fill-rule="evenodd" transform="matrix(1 0 0 -1 376.5 743.237)"/><path d="M470.878 742.844 376.5 646.5" stroke="#000000" stroke-width="11.4583" stroke-miterlimit="8" fill="none" fill-rule="evenodd"/><path d="M311.5 619.5C311.5 598.513 328.513 581.5 349.5 581.5 370.487 581.5 387.5 598.513 387.5 619.5 387.5 640.487 370.487 657.5 349.5 657.5 328.513 657.5 311.5 640.487 311.5 619.5Z" stroke="#000000" stroke-width="4.58333" stroke-miterlimit="8" fill-rule="evenodd"/><path d="M383.5 696.5C383.5 675.513 400.513 658.5 421.5 658.5 442.487 658.5 459.5 675.513 459.5 696.5 459.5 717.487 442.487 734.5 421.5 734.5 400.513 734.5 383.5 717.487 383.5 696.5Z" stroke="#000000" stroke-width="4.58333" stroke-miterlimit="8" fill-rule="evenodd"/><path d="M311.5 770C311.5 749.289 328.513 732.5 349.5 732.5 370.487 732.5 387.5 749.289 387.5 770 387.5 790.711 370.487 807.5 349.5 807.5 328.513 807.5 311.5 790.711 311.5 770Z" stroke="#000000" stroke-width="4.58333" stroke-miterlimit="8" fill-rule="evenodd"/><path d="M456.5 619.5C456.5 598.513 473.289 581.5 494 581.5 514.711 581.5 531.5 598.513 531.5 619.5 531.5 640.487 514.711 657.5 494 657.5 473.289 657.5 456.5 640.487 456.5 619.5Z" stroke="#000000" stroke-width="4.58333" stroke-miterlimit="8" fill-rule="evenodd"/><path d="M459.5 769.5C459.5 748.513 476.289 731.5 497 731.5 517.711 731.5 534.5 748.513 534.5 769.5 534.5 790.487 517.711 807.5 497 807.5 476.289 807.5 459.5 790.487 459.5 769.5Z" stroke="#000000" stroke-width="4.58333" stroke-miterlimit="8" fill-rule="evenodd"/></g></svg>