<svg width="269" height="270" xmlns="http://www.w3.org/2000/svg" xmlns:xlink="http://www.w3.org/1999/xlink" overflow="hidden"><defs><clipPath id="clip0"><rect x="1885" y="1618" width="269" height="270"/></clipPath></defs><g clip-path="url(#clip0)" transform="translate(-1885 -1618)"><path d="M1892.5 1662.5C1892.5 1641.51 1909.29 1624.5 1930 1624.5 1950.71 1624.5 1967.5 1641.51 1967.5 1662.5 1967.5 1683.49 1950.71 1700.5 1930 1700.5 1909.29 1700.5 1892.5 1683.49 1892.5 1662.5Z" stroke="#000000" stroke-width="4.58333" stroke-miterlimit="8" fill-rule="evenodd"/><path d="M1982.5 1663C1982.5 1642.29 1999.29 1625.5 2020 1625.5 2040.71 1625.5 2057.5 1642.29 2057.5 1663 2057.5 1683.71 2040.71 1700.5 2020 1700.5 1999.29 1700.5 1982.5 1683.71 1982.5 1663Z" stroke="#000000" stroke-width="4.58333" stroke-miterlimit="8" fill-rule="evenodd"/><path d="M2072.5 1662.5C2072.5 1641.51 2089.51 1624.5 2110.5 1624.5 2131.49 1624.5 2148.5 1641.51 2148.5 1662.5 2148.5 1683.49 2131.49 1700.5 2110.5 1700.5 2089.51 1700.5 2072.5 1683.49 2072.5 1662.5Z" stroke="#000000" stroke-width="4.58333" stroke-miterlimit="8" fill-rule="evenodd"/><path d="M1892.5 1756.5C1892.5 1735.51 1909.29 1718.5 1930 1718.5 1950.71 1718.5 1967.5 1735.51 1967.5 1756.5 1967.5 1777.49 1950.71 1794.5 1930 1794.5 1909.29 1794.5 1892.5 1777.49 1892.5 1756.5Z" stroke="#000000" stroke-width="4.58333" stroke-miterlimit="8" fill-rule="evenodd"/><path d="M1982.5 1756.5C1982.5 1735.51 1999.29 1718.5 2020 1718.5 2040.71 1718.5 2057.5 1735.51 2057.5 1756.5 2057.5 1777.49 2040.71 1794.5 2020 1794.5 1999.29 1794.5 1982.5 1777.49 1982.5 1756.5Z" stroke="#000000" stroke-width="4.58333" stroke-miterlimit="8" fill-rule="evenodd"/><path d="M2072.5 1756.5C2072.5 1735.51 2089.51 1718.5 2110.5 1718.5 2131.49 1718.5 2148.5 1735.51 2148.5 1756.5 2148.5 1777.49 2131.49 1794.5 2110.5 1794.5 2089.51 1794.5 2072.5 1777.49 2072.5 1756.5Z" stroke="#000000" stroke-width="4.58333" stroke-miterlimit="8" fill-rule="evenodd"/><path d="M1892.5 1844.5C1892.5 1823.51 1909.29 1806.5 1930 1806.5 1950.71 1806.5 1967.5 1823.51 1967.5 1844.5 1967.5 1865.49 1950.71 1882.5 1930 1882.5 1909.29 1882.5 1892.5 1865.49 1892.5 1844.5Z" stroke="#000000" stroke-width="4.58333" stroke-miterlimit="8" fill-rule="evenodd"/><path d="M1982.5 1845C1982.5 1824.29 1999.29 1807.5 2020 1807.5 2040.71 1807.5 2057.5 1824.29 2057.5 1845 2057.5 1865.71 2040.71 1882.5 2020 1882.5 1999.29 1882.5 1982.5 1865.71 1982.5 1845Z" stroke="#000000" stroke-width="4.58333" stroke-miterlimit="8" fill-rule="evenodd"/><path d="M2072.5 1844.5C2072.5 1823.51 2089.51 1806.5 2110.5 1806.5 2131.49 1806.5 2148.5 1823.51 2148.5 1844.5 2148.5 1865.49 2131.49 1882.5 2110.5 1882.5 2089.51 1882.5 2072.5 1865.49 2072.5 1844.5Z" stroke="#000000" stroke-width="4.58333" stroke-miterlimit="8" fill-rule="evenodd"/></g></svg>