<svg width="269" height="269" xmlns="http://www.w3.org/2000/svg" xmlns:xlink="http://www.w3.org/1999/xlink" overflow="hidden"><defs><clipPath id="clip0"><rect x="282" y="1630" width="269" height="269"/></clipPath></defs><g clip-path="url(#clip0)" transform="translate(-282 -1630)"><path d="M288.5 1763C288.5 1742.29 305.513 1725.5 326.5 1725.5 347.487 1725.5 364.5 1742.29 364.5 1763 364.5 1783.71 347.487 1800.5 326.5 1800.5 305.513 1800.5 288.5 1783.71 288.5 1763Z" stroke="#000000" stroke-width="4.58333" stroke-miterlimit="8" fill-rule="evenodd"/><path d="M374.5 1762.5C374.5 1741.51 391.513 1724.5 412.5 1724.5 433.487 1724.5 450.5 1741.51 450.5 1762.5 450.5 1783.49 433.487 1800.5 412.5 1800.5 391.513 1800.5 374.5 1783.49 374.5 1762.5Z" stroke="#000000" stroke-width="4.58333" stroke-miterlimit="8" fill-rule="evenodd"/><path d="M465.5 1762.5C465.5 1741.51 482.289 1724.5 503 1724.5 523.711 1724.5 540.5 1741.51 540.5 1762.5 540.5 1783.49 523.711 1800.5 503 1800.5 482.289 1800.5 465.5 1783.49 465.5 1762.5Z" stroke="#000000" stroke-width="4.58333" stroke-miterlimit="8" fill-rule="evenodd"/></g></svg>