<svg width="269" height="272" xmlns="http://www.w3.org/2000/svg" xmlns:xlink="http://www.w3.org/1999/xlink" overflow="hidden"><defs><clipPath id="clip0"><rect x="878" y="1050" width="269" height="272"/></clipPath></defs><g clip-path="url(#clip0)" transform="translate(-878 -1050)"><path d="M974.5 1092C974.5 1071.29 991.513 1054.5 1012.5 1054.5 1033.49 1054.5 1050.5 1071.29 1050.5 1092 1050.5 1112.71 1033.49 1129.5 1012.5 1129.5 991.513 1129.5 974.5 1112.71 974.5 1092Z" stroke="#000000" stroke-width="4.58333" stroke-miterlimit="8" fill-rule="evenodd"/><path d="M978.5 1280.5C978.5 1259.51 995.289 1242.5 1016 1242.5 1036.71 1242.5 1053.5 1259.51 1053.5 1280.5 1053.5 1301.49 1036.71 1318.5 1016 1318.5 995.289 1318.5 978.5 1301.49 978.5 1280.5Z" stroke="#000000" stroke-width="6.875" stroke-miterlimit="8" fill-rule="evenodd"/><path d="M889.5 1281C889.5 1260.29 906.289 1243.5 927 1243.5 947.711 1243.5 964.5 1260.29 964.5 1281 964.5 1301.71 947.711 1318.5 927 1318.5 906.289 1318.5 889.5 1301.71 889.5 1281Z" stroke="#000000" stroke-width="6.875" stroke-miterlimit="8" fill-rule="evenodd"/><path d="M1066.5 1280.5C1066.5 1259.51 1083.29 1242.5 1104 1242.5 1124.71 1242.5 1141.5 1259.51 1141.5 1280.5 1141.5 1301.49 1124.71 1318.5 1104 1318.5 1083.29 1318.5 1066.5 1301.49 1066.5 1280.5Z" stroke="#000000" stroke-width="6.875" stroke-miterlimit="8" fill-rule="evenodd"/><path d="M0 0 59.0027 124.755" stroke="#000000" stroke-width="11.4583" stroke-miterlimit="8" fill="none" fill-rule="evenodd" transform="matrix(1 0 0 -1 953.5 1254.26)"/><path d="M1015.7 1242.87 1012.5 1129.5" stroke="#000000" stroke-width="11.4583" stroke-miterlimit="8" fill="none" fill-rule="evenodd"/><path d="M1077.51 1253.92 1012.5 1129.5" stroke="#000000" stroke-width="11.4583" stroke-miterlimit="8" fill="none" fill-rule="evenodd"/></g></svg>