<svg width="231" height="237" xmlns="http://www.w3.org/2000/svg" xmlns:xlink="http://www.w3.org/1999/xlink" overflow="hidden"><defs><clipPath id="clip0"><rect x="1059" y="611" width="231" height="237"/></clipPath></defs><g clip-path="url(#clip0)" transform="translate(-1059 -611)"><path d="M1209.5 728.5C1209.5 707.513 1226.29 690.5 1247 690.5 1267.71 690.5 1284.5 707.513 1284.5 728.5 1284.5 749.487 1267.71 766.5 1247 766.5 1226.29 766.5 1209.5 749.487 1209.5 728.5Z" stroke="#000000" stroke-width="4.58333" stroke-miterlimit="8" fill-rule="evenodd"/><path d="M1061.5 728.5C1061.5 707.513 1078.29 690.5 1099 690.5 1119.71 690.5 1136.5 707.513 1136.5 728.5 1136.5 749.487 1119.71 766.5 1099 766.5 1078.29 766.5 1061.5 749.487 1061.5 728.5Z" stroke="#000000" stroke-width="4.58333" stroke-miterlimit="8" fill-rule="evenodd"/><path d="M1209.5 651C1209.5 630.289 1226.29 613.5 1247 613.5 1267.71 613.5 1284.5 630.289 1284.5 651 1284.5 671.711 1267.71 688.5 1247 688.5 1226.29 688.5 1209.5 671.711 1209.5 651Z" stroke="#000000" stroke-width="4.58333" stroke-miterlimit="8" fill-rule="evenodd"/><path d="M1212.5 808C1212.5 787.289 1229.29 770.5 1250 770.5 1270.71 770.5 1287.5 787.289 1287.5 808 1287.5 828.711 1270.71 845.5 1250 845.5 1229.29 845.5 1212.5 828.711 1212.5 808Z" stroke="#000000" stroke-width="4.58333" stroke-miterlimit="8" fill-rule="evenodd"/><path d="M0 0 72.286 0.000360892" stroke="#000000" stroke-width="11.4583" stroke-miterlimit="8" fill="none" fill-rule="evenodd" transform="matrix(-1 0 0 1 1208.79 728.5)"/><path d="M1211.93 807.757 1136.5 728.5" stroke="#000000" stroke-width="11.4583" stroke-miterlimit="8" fill="none" fill-rule="evenodd"/><path d="M0 0 72.2875 77.2977" stroke="#000000" stroke-width="11.4583" stroke-miterlimit="8" fill="none" fill-rule="evenodd" transform="matrix(1 0 0 -1 1136.5 728.798)"/></g></svg>