<svg width="96" height="82" xmlns="http://www.w3.org/2000/svg" xmlns:xlink="http://www.w3.org/1999/xlink" overflow="hidden"><defs><clipPath id="clip0"><rect x="1285" y="969" width="96" height="82"/></clipPath></defs><g clip-path="url(#clip0)" transform="translate(-1285 -969)"><path d="M1287.5 987.5C1287.5 979.768 1293.99 973.5 1302 973.5 1310.01 973.5 1316.5 979.768 1316.5 987.5 1316.5 995.232 1310.01 1001.5 1302 1001.5 1293.99 1001.5 1287.5 995.232 1287.5 987.5Z" stroke="#000000" stroke-width="4.58333" stroke-miterlimit="8" fill-rule="evenodd"/><path d="M1313.04 997.298 1318.89 1012.82 1317.81 1013.22 1311.96 997.702ZM1325.31 1005.5 1323.2 1025.89 1308.15 1011.97Z"/><path d="M1318.5 1035C1318.5 1027.54 1324.99 1021.5 1333 1021.5 1341.01 1021.5 1347.5 1027.54 1347.5 1035 1347.5 1042.46 1341.01 1048.5 1333 1048.5 1324.99 1048.5 1318.5 1042.46 1318.5 1035Z" stroke="#000000" stroke-width="4.58333" stroke-miterlimit="8" fill-rule="evenodd"/><path d="M1347.5 985C1347.5 977.544 1354.22 971.5 1362.5 971.5 1370.78 971.5 1377.5 977.544 1377.5 985 1377.5 992.456 1370.78 998.5 1362.5 998.5 1354.22 998.5 1347.5 992.456 1347.5 985Z" stroke="#000000" stroke-width="4.58333" stroke-miterlimit="8" fill-rule="evenodd"/><path d="M0.46754-0.331119 11.4087 15.1179 10.4736 15.7801-0.46754 0.331119ZM15.7729 6.41076 18.888 26.6699 0.811585 17.0066Z" transform="matrix(1 0 0 -1 1343.5 1025.17)"/></g></svg>