<svg width="269" height="269" xmlns="http://www.w3.org/2000/svg" xmlns:xlink="http://www.w3.org/1999/xlink" overflow="hidden"><defs><clipPath id="clip0"><rect x="2389" y="923" width="269" height="269"/></clipPath></defs><g clip-path="url(#clip0)" transform="translate(-2389 -923)"><path d="M2397.5 971C2397.5 950.289 2414.51 933.5 2435.5 933.5 2456.49 933.5 2473.5 950.289 2473.5 971 2473.5 991.711 2456.49 1008.5 2435.5 1008.5 2414.51 1008.5 2397.5 991.711 2397.5 971Z" stroke="#000000" stroke-width="4.58333" stroke-miterlimit="8" fill-rule="evenodd"/><path d="M2486.5 1149.5C2486.5 1128.51 2503.29 1111.5 2524 1111.5 2544.71 1111.5 2561.5 1128.51 2561.5 1149.5 2561.5 1170.49 2544.71 1187.5 2524 1187.5 2503.29 1187.5 2486.5 1170.49 2486.5 1149.5Z" stroke="#000000" stroke-width="4.58333" stroke-miterlimit="8" fill-rule="evenodd"/><path d="M2577.5 971C2577.5 950.289 2594.51 933.5 2615.5 933.5 2636.49 933.5 2653.5 950.289 2653.5 971 2653.5 991.711 2636.49 1008.5 2615.5 1008.5 2594.51 1008.5 2577.5 991.711 2577.5 971Z" stroke="#000000" stroke-width="4.58333" stroke-miterlimit="8" fill-rule="evenodd"/><path d="M2436.01 1007.46 2486.71 1101.49 2484.69 1102.57 2433.99 1008.54ZM2495.63 1091.47 2496.58 1122.2 2471.42 1104.52Z"/><path d="M0.99665-0.565351 54.4702 93.7024 52.4769 94.8331-0.99665 0.565351ZM63.1719 83.497 64.7805 114.201 39.2523 97.0654Z" transform="matrix(1 0 0 -1 2550 1122.2)"/></g></svg>