<svg width="235" height="234" xmlns="http://www.w3.org/2000/svg" xmlns:xlink="http://www.w3.org/1999/xlink" overflow="hidden"><defs><clipPath id="clip0"><rect x="897" y="1068" width="235" height="234"/></clipPath></defs><g clip-path="url(#clip0)" transform="translate(-897 -1068)"><path d="M974.5 1108C974.5 1087.29 991.513 1070.5 1012.5 1070.5 1033.49 1070.5 1050.5 1087.29 1050.5 1108 1050.5 1128.71 1033.49 1145.5 1012.5 1145.5 991.513 1145.5 974.5 1128.71 974.5 1108Z" stroke="#000000" stroke-width="4.58333" stroke-miterlimit="8" fill-rule="evenodd"/><path d="M974.5 1261.5C974.5 1240.51 991.513 1223.5 1012.5 1223.5 1033.49 1223.5 1050.5 1240.51 1050.5 1261.5 1050.5 1282.49 1033.49 1299.5 1012.5 1299.5 991.513 1299.5 974.5 1282.49 974.5 1261.5Z" stroke="#000000" stroke-width="4.58333" stroke-miterlimit="8" fill-rule="evenodd"/><path d="M899.5 1262C899.5 1241.29 916.289 1224.5 937 1224.5 957.711 1224.5 974.5 1241.29 974.5 1262 974.5 1282.71 957.711 1299.5 937 1299.5 916.289 1299.5 899.5 1282.71 899.5 1262Z" stroke="#000000" stroke-width="4.58333" stroke-miterlimit="8" fill-rule="evenodd"/><path d="M1053.5 1261.5C1053.5 1240.51 1070.51 1223.5 1091.5 1223.5 1112.49 1223.5 1129.5 1240.51 1129.5 1261.5 1129.5 1282.49 1112.49 1299.5 1091.5 1299.5 1070.51 1299.5 1053.5 1282.49 1053.5 1261.5Z" stroke="#000000" stroke-width="4.58333" stroke-miterlimit="8" fill-rule="evenodd"/><path d="M0 0 75.9195 78.5226" stroke="#000000" stroke-width="11.4583" stroke-miterlimit="8" fill="none" fill-rule="evenodd" transform="matrix(1 0 0 -1 936.5 1224.02)"/><path d="M1012.5 1223.63 1012.5 1145.5" stroke="#000000" stroke-width="11.4583" stroke-miterlimit="8" fill="none" fill-rule="evenodd"/><path d="M1091.37 1223.63 1012.5 1145.5" stroke="#000000" stroke-width="11.4583" stroke-miterlimit="8" fill="none" fill-rule="evenodd"/></g></svg>