<svg width="269" height="270" xmlns="http://www.w3.org/2000/svg" xmlns:xlink="http://www.w3.org/1999/xlink" overflow="hidden"><defs><clipPath id="clip0"><rect x="1038" y="593" width="269" height="270"/></clipPath></defs><g clip-path="url(#clip0)" transform="translate(-1038 -593)"><path d="M1228.5 728.5C1228.5 707.513 1245.29 690.5 1266 690.5 1286.71 690.5 1303.5 707.513 1303.5 728.5 1303.5 749.487 1286.71 766.5 1266 766.5 1245.29 766.5 1228.5 749.487 1228.5 728.5Z" stroke="#000000" stroke-width="4.58333" stroke-miterlimit="8" fill-rule="evenodd"/><path d="M1042.5 728.5C1042.5 707.513 1059.29 690.5 1080 690.5 1100.71 690.5 1117.5 707.513 1117.5 728.5 1117.5 749.487 1100.71 766.5 1080 766.5 1059.29 766.5 1042.5 749.487 1042.5 728.5Z" stroke="#000000" stroke-width="4.58333" stroke-miterlimit="8" fill-rule="evenodd"/><path d="M1228.5 635C1228.5 614.289 1245.29 597.5 1266 597.5 1286.71 597.5 1303.5 614.289 1303.5 635 1303.5 655.711 1286.71 672.5 1266 672.5 1245.29 672.5 1228.5 655.711 1228.5 635Z" stroke="#000000" stroke-width="4.58333" stroke-miterlimit="8" fill-rule="evenodd"/><path d="M1228.5 820.5C1228.5 799.513 1245.29 782.5 1266 782.5 1286.71 782.5 1303.5 799.513 1303.5 820.5 1303.5 841.487 1286.71 858.5 1266 858.5 1245.29 858.5 1228.5 841.487 1228.5 820.5Z" stroke="#000000" stroke-width="4.58333" stroke-miterlimit="8" fill-rule="evenodd"/><path d="M0 0 110.734 0.000360892" stroke="#000000" stroke-width="11.4583" stroke-miterlimit="8" fill="none" fill-rule="evenodd" transform="matrix(-1 0 0 1 1228.23 728.5)"/><path d="M1228.17 820.573 1117.5 728.5" stroke="#000000" stroke-width="11.4583" stroke-miterlimit="8" fill="none" fill-rule="evenodd"/><path d="M0 0 110.735 93.3177" stroke="#000000" stroke-width="11.4583" stroke-miterlimit="8" fill="none" fill-rule="evenodd" transform="matrix(1 0 0 -1 1117.5 728.818)"/></g></svg>