<svg width="269" height="269" xmlns="http://www.w3.org/2000/svg" xmlns:xlink="http://www.w3.org/1999/xlink" overflow="hidden"><defs><clipPath id="clip0"><rect x="836" y="1653" width="269" height="269"/></clipPath></defs><g clip-path="url(#clip0)" transform="translate(-836 -1653)"><path d="M933.5 1694C933.5 1673.29 950.289 1656.5 971 1656.5 991.711 1656.5 1008.5 1673.29 1008.5 1694 1008.5 1714.71 991.711 1731.5 971 1731.5 950.289 1731.5 933.5 1714.71 933.5 1694Z" stroke="#000000" stroke-width="4.58333" stroke-miterlimit="8" fill-rule="evenodd"/><path d="M933.5 1785C933.5 1764.29 950.289 1747.5 971 1747.5 991.711 1747.5 1008.5 1764.29 1008.5 1785 1008.5 1805.71 991.711 1822.5 971 1822.5 950.289 1822.5 933.5 1805.71 933.5 1785Z" stroke="#000000" stroke-width="4.58333" stroke-miterlimit="8" fill-rule="evenodd"/><path d="M933.5 1878C933.5 1857.29 950.289 1840.5 971 1840.5 991.711 1840.5 1008.5 1857.29 1008.5 1878 1008.5 1898.71 991.711 1915.5 971 1915.5 950.289 1915.5 933.5 1898.71 933.5 1878Z" stroke="#000000" stroke-width="4.58333" stroke-miterlimit="8" fill-rule="evenodd"/></g></svg>